<svg xmlns="http://www.w3.org/2000/svg" width="20" height="20" stroke="#000" stroke-linecap="round" stroke-linejoin="round" fill="#fff" fill-rule="evenodd"><path d="M11.0175 18.9219l-.0043 1.0729L20 20v-1.073c-.6026-.1248-1.345-.302-1.5764-.9843L11.5197.0208 6.5415.0104l.8864 2.1875-5.8908 15.7917c-.2227.6667-.952.8177-1.5371.9427v1.0625L5.7293 20l-.0044-1.0781c-.5983-.099-1.2882-.0886-1.7772-.5208-.3844-.3855-.2141-.9896-.0525-1.4427l1.1572-3.0833 6.9433.0051.9519 2.4792c.2096.5572.4018 1.1823.2315 1.7813-.4455.7707-1.4106.7238-2.1616.7812zm-5.2708-6.9635l2.6944-7.3647 2.8209 7.3647H5.7467zm0 0" stroke="none" fill="#000" fill-rule="nonzero"/></svg>