<svg xmlns="http://www.w3.org/2000/svg" width="20" height="20" stroke="#000" stroke-linecap="round" stroke-linejoin="round" fill="#fff" fill-rule="evenodd"><path d="M4.606 3.432a.83.83 0 0 0 .845-.847c0-.478-.371-.85-.846-.847-.453.005-.838.385-.849.837s.387.855.85.857zm14.105 8.547c-.469 0-.856.388-.851.852.006.451.387.831.841.843a.85.85 0 0 0 .852-.847c.001-.481-.363-.847-.842-.848zm-3.324-8.547a.83.83 0 0 0 .837-.854c-.004-.477-.381-.847-.857-.839-.452.009-.835.394-.837.846a.86.86 0 0 0 .857.847zM9.994 18.307c-.469.001-.86.392-.851.85.009.451.393.834.845.843.461.01.849-.378.85-.849a.82.82 0 0 0-.844-.844zm2.828-.445c-.466.004-.842.38-.841.84s.384.84.844.842c.47.003.85-.381.845-.857-.004-.467-.375-.828-.848-.825zm6.348-8.706c-.467-.003-.847.363-.857.823a.87.87 0 0 0 .851.863.85.85 0 0 0 .836-.847c.003-.469-.361-.838-.83-.839zM2.588 14.537a.82.82 0 0 0-.841.827c-.004.476.38.865.847.858a.86.86 0 0 0 .837-.85c-.003-.46-.379-.835-.843-.835zM2.572 5.46a.86.86 0 0 0 .858-.853.84.84 0 0 0-.845-.832.82.82 0 0 0-.838.831c-.003.466.364.846.825.854zm10.253-3.327c.467.003.849-.382.845-.853s-.386-.842-.86-.834a.85.85 0 0 0-.827.85.86.86 0 0 0 .842.837zM2.131 12.828c.005-.459-.368-.84-.83-.849a.85.85 0 0 0-.868.839c-.002.454.373.841.832.856s.862-.38.866-.846zm15.273-7.375a.85.85 0 0 0 .848-.833c.004-.463-.367-.838-.834-.842s-.844.365-.849.827a.85.85 0 0 0 .835.848zM1.668 9.989a.82.82 0 0 0-.838-.83c-.468.001-.832.369-.83.838a.84.84 0 0 0 .838.839.84.84 0 0 0 .83-.847zM9.993 1.68c.461.003.837-.372.838-.837A.83.83 0 0 0 10.003 0c-.46-.002-.84.373-.845.834a.85.85 0 0 0 .835.846zm7.411 12.858c-.462.004-.841.386-.835.844s.396.841.849.835c.458-.006.838-.393.834-.85a.84.84 0 0 0-.848-.829zm.466-7.384c-.009.451.377.845.831.851s.845-.371.849-.83-.366-.844-.826-.851-.846.372-.854.83zm-16.584.851c.463-.001.831-.378.83-.845a.83.83 0 0 0-.836-.834.83.83 0 0 0-.83.842c.001.466.373.839.836.837zM7.17 2.129a.84.84 0 0 0 .831-.846.83.83 0 0 0-.839-.835.83.83 0 0 0-.83.842.84.84 0 0 0 .838.839zM4.606 16.566c-.465.003-.842.381-.836.84s.382.829.849.826a.82.82 0 0 0 .827-.84c-.004-.467-.372-.829-.84-.826zm10.777.001c-.467-.001-.838.367-.837.833a.83.83 0 0 0 .839.832.82.82 0 0 0 .833-.834.82.82 0 0 0-.835-.831zm-8.207 1.3c-.469-.005-.839.355-.844.821a.83.83 0 0 0 .824.847.83.83 0 0 0 .845-.825c.005-.468-.357-.838-.825-.843zm5.61-14.744c.01.382.341.706.721.708.398.001.715-.328.712-.732-.003-.391-.323-.71-.712-.71s-.732.353-.721.734zm-9.68 9.67c-.405 0-.704.3-.705.706 0 .401.303.713.699.72s.732-.33.726-.728a.7.7 0 0 0-.72-.698zm1.428-8.969c-.396-.001-.718.308-.726.698s.33.725.731.72a.71.71 0 0 0 .707-.713c-.001-.393-.315-.704-.712-.705zm13.103 4.245c-.382-.002-.718.33-.718.713s.332.719.714.719.716-.33.719-.713-.331-.717-.715-.719zM4.532 16.172c.385 0 .712-.33.712-.717a.72.72 0 0 0-.712-.714c-.384 0-.718.331-.719.714a.74.74 0 0 0 .719.717zm13.105-4.261a.72.72 0 0 0 .719-.706.72.72 0 0 0-.712-.712c-.405-.005-.738.323-.731.716.006.387.333.703.724.702zm-6.432 5c-.389.001-.716.325-.719.707-.003.387.32.709.711.712.398.003.721-.303.73-.691.008-.397-.323-.729-.722-.728zM10.49 2.36c-.004.381.328.716.712.719s.717-.325.719-.711a.73.73 0 0 0-.711-.72.74.74 0 0 0-.72.712zM2.402 6.497a.71.71 0 0 0 .716.706c.391-.009.705-.334.698-.725s-.325-.71-.718-.703-.7.324-.696.722zm15.196 6.99a.71.71 0 0 0-.704-.69.71.71 0 0 0-.719.703c0 .388.327.707.719.704s.713-.332.704-.717zM3.063 8.783c0-.392-.324-.714-.711-.71a.71.71 0 0 0-.694.7.71.71 0 0 0 .698.722.71.71 0 0 0 .707-.712zm10.434 7.386a.71.71 0 0 0-.704.718c.009.395.326.697.726.694a.7.7 0 0 0 .699-.717c-.005-.392-.324-.7-.721-.695zM8.775 3.073c.388.01.712-.309.716-.701a.71.71 0 0 0-.702-.719.71.71 0 0 0-.704.69c-.006.398.3.723.69.73zm8.099 4.122c.381.01.719-.317.724-.702s-.323-.714-.711-.715-.714.33-.713.714c.006.376.32.693.7.703zm-1.422 8.97a.71.71 0 1 0 .013-1.42.71.71 0 0 0-.703.716.71.71 0 0 0 .69.704zM6.488 3.822c.39-.001.704-.325.703-.719a.71.71 0 0 0-.716-.703.71.71 0 0 0-.69.706c-.002.393.317.716.703.716zm-4.144 8.081c.404.007.715-.292.719-.691s-.297-.711-.697-.712a.69.69 0 0 0-.708.677.69.69 0 0 0 .686.726zm13.142-8.074c-.402-.008-.716.293-.723.689-.006.403.295.711.693.714a.69.69 0 0 0 .713-.699c0-.388-.299-.696-.683-.704zM7.191 16.882a.69.69 0 0 0-.704-.707c-.392 0-.694.295-.701.682a.69.69 0 0 0 .691.72.69.69 0 0 0 .714-.695zm2.298.745c.004-.4-.3-.707-.701-.707a.69.69 0 0 0-.703.709.69.69 0 0 0 .69.695c.403.006.711-.296.714-.697zm3.089-1.505a.57.57 0 0 0-.59-.597.61.61 0 0 0-.604.598c.005.306.284.586.591.596.318.01.6-.271.603-.597zm-7.771-2.935c-.352-.008-.606.23-.609.575-.006.331.257.612.579.619.313.006.61-.284.613-.6a.61.61 0 0 0-.583-.594zm12.235-3.176a.6.6 0 0 0-.565-.606c-.352-.012-.614.222-.627.56-.013.332.242.615.568.632.315.015.611-.265.624-.586zm-5.045-6.729c-.33-.002-.611.268-.612.588-.002.315.292.606.607.605s.582-.27.586-.588a.57.57 0 0 0-.581-.605zm-7.8 2.941c.003.317.269.587.583.59a.63.63 0 0 0 .609-.602c.001-.322-.278-.593-.608-.59-.346.001-.588.252-.584.602zm11.33 1.779a.62.62 0 0 0 .607.601.6.6 0 0 0 .58-.618.58.58 0 0 0-.597-.569c-.319.003-.587.27-.59.586zm-1.735 6.6a.62.62 0 0 0-.605.603c.003.316.27.58.589.582.333.004.589-.24.597-.567.007-.333-.254-.611-.581-.618zM3.274 7.996c-.005.322.279.61.6.607a.6.6 0 0 0 .584-.589c.004-.34-.252-.599-.592-.598-.322 0-.585.261-.592.58zm3.525 7.205a.6.6 0 0 0-.575-.599c-.32-.009-.61.276-.61.599s.264.582.584.586a.57.57 0 0 0 .601-.586zm8.401-8.4a.61.61 0 0 0 .604-.598.6.6 0 0 0-.594-.578c-.324.001-.585.26-.588.579a.6.6 0 0 0 .578.597zm.603 6.974c-.002-.318-.269-.582-.589-.583s-.588.255-.593.575a.6.6 0 0 0 .598.601.61.61 0 0 0 .584-.593zm-12.244-3.19a.6.6 0 0 0 .586-.589.59.59 0 0 0-.582-.588.6.6 0 0 0-.601.572c-.009.322.273.608.597.605zm10.225-6.392c-.315 0-.587.27-.59.586-.004.329.27.598.605.593a.58.58 0 0 0 .571-.594c-.002-.318-.27-.585-.586-.585zM6.215 5.372c.326-.001.579-.256.579-.584.002-.321-.257-.589-.574-.595a.6.6 0 0 0-.598.602c.005.322.269.578.593.577zm3.788 11.65a.59.59 0 0 0 .578-.59.59.59 0 0 0-.577-.593.6.6 0 0 0-.596.578.6.6 0 0 0 .595.605zM9.997 2.967c-.32.001-.589.261-.597.578-.007.323.268.602.599.602a.58.58 0 0 0 .587-.578.58.58 0 0 0-.589-.602zm6.714 9.025c.005-.328-.245-.586-.571-.593-.331-.007-.61.262-.608.587a.61.61 0 0 0 .59.586.59.59 0 0 0 .589-.58zM7.987 3.285c-.321.01-.574.276-.567.599a.6.6 0 0 0 .593.579c.326-.005.586-.285.576-.616a.58.58 0 0 0-.602-.562zm-4.118 9.287a.59.59 0 0 0 .585-.583c.004-.328-.246-.585-.571-.59a.58.58 0 0 0-.6.589c.004.319.271.586.586.584zM8.59 16.12c.003-.328-.246-.583-.572-.588a.58.58 0 0 0-.598.566c-.008.329.262.609.588.608a.59.59 0 0 0 .582-.586zm-2.383-1.833a.49.49 0 0 0 .485-.495c.003-.282-.195-.491-.472-.5s-.518.216-.522.488c-.005.266.242.511.509.507zm8.604-5.12c.005.273.222.489.491.489a.53.53 0 0 0 .505-.513c-.009-.26-.243-.481-.505-.481-.289 0-.495.212-.491.505zm-2.387 6.11c.269.01.502-.225.502-.505s-.197-.484-.48-.488-.515.215-.515.492a.53.53 0 0 0 .493.501zM4.71 7.547c-.008.265.237.515.504.514a.49.49 0 0 0 .489-.514.47.47 0 0 0-.489-.48c-.27 0-.498.218-.504.48zm6.138-3.357a.53.53 0 0 0-.514.506.5.5 0 0 0 .492.49c.293.005.504-.203.504-.493-.003-.266-.222-.495-.482-.503zM4.69 9.652c.26.003.495-.226.502-.488s-.215-.495-.48-.503-.499.202-.51.469c-.014.275.216.519.488.522zm10.093-1.595c.267 0 .484-.221.487-.493a.48.48 0 0 0-.476-.497.5.5 0 0 0-.508.498.51.51 0 0 0 .497.492zm-.993 6.227c.264.003.488-.216.493-.486s-.2-.495-.471-.504a.49.49 0 0 0-.508.495c-.001.268.219.492.486.495zm-6.232.987c.277.001.5-.232.491-.514s-.219-.477-.499-.472c-.273.005-.486.223-.483.493s.226.491.491.493zm1.107-10.57a.49.49 0 0 0 .493.484c.275.001.488-.21.492-.483a.5.5 0 0 0-.479-.504c-.271-.009-.51.227-.506.503zm.494 11.078c.27-.001.483-.217.483-.49s-.222-.493-.486-.491-.485.226-.483.495a.48.48 0 0 0 .486.486zM6.202 5.717a.49.49 0 0 0-.495.483c0 .264.224.485.493.485s.489-.215.489-.485-.211-.483-.487-.483zm6.236-.989c-.268-.001-.495.22-.496.484a.51.51 0 0 0 .49.495c.265.002.488-.222.488-.489.002-.276-.208-.489-.482-.49zm-1.112 10.568c.001-.266-.219-.494-.484-.499a.51.51 0 0 0-.497.489.5.5 0 0 0 .488.492c.271.004.489-.211.493-.482zm3.976-3.977c.267 0 .492-.222.492-.486a.49.49 0 0 0-.492-.485c-.276 0-.486.209-.486.484s.215.487.486.487zm-10.114-.482a.49.49 0 0 0-.488-.488c-.274-.003-.492.208-.497.478a.49.49 0 0 0 .487.491c.267.004.494-.215.498-.481zm10.079 1.584a.47.47 0 0 0-.493-.475c-.269.003-.489.226-.482.491s.231.485.499.48.481-.226.476-.496zM7.075 5.227a.49.49 0 0 0 .5.478c.268-.008.474-.231.469-.504s-.221-.479-.498-.472a.48.48 0 0 0-.471.498zm-1.851 6.717c-.273-.005-.493.203-.499.473a.49.49 0 0 0 .478.5c.268.007.49-.208.495-.478.004-.277-.197-.489-.474-.495zm8.568-6.227c-.278.001-.487.214-.482.491a.48.48 0 0 0 .474.477c.277.005.492-.205.495-.481s-.208-.488-.487-.487zm-3.771.254c.218-.012.406-.216.396-.429a.44.44 0 0 0-.429-.399.43.43 0 0 0-.404.42.42.42 0 0 0 .437.408zm3.156 1.411a.43.43 0 0 0 .407.417.43.43 0 0 0 .417-.407.43.43 0 0 0-.409-.417.43.43 0 0 0-.415.407zm-.582 5.786c-.218.007-.409.202-.405.417s.197.403.417.405c.226 0 .412-.181.415-.403a.42.42 0 0 0-.427-.419zM5.358 8.616a.43.43 0 0 0 .432.418c.222-.005.405-.195.402-.417a.42.42 0 0 0-.414-.404.43.43 0 0 0-.42.403zm2.024 5.374a.39.39 0 0 0 .41-.4c.005-.233-.169-.417-.395-.422a.41.41 0 0 0-.413.406c-.002.238.162.411.398.416zm6.205-.988c.228.002.415-.183.411-.407s-.192-.404-.421-.398c-.22.005-.396.18-.4.395-.004.226.177.41.41.41zm1.036-4.375c.001-.239-.165-.41-.4-.414a.39.39 0 0 0-.407.404.4.4 0 0 0 .397.417c.228.003.408-.177.41-.407zm-6.008 5.996c.216.009.413-.181.42-.4s-.176-.416-.396-.425-.409.174-.416.4.167.417.392.425zM5.55 10.401a.41.41 0 0 0 .417-.405c.002-.219-.169-.398-.389-.407a.41.41 0 0 0-.43.392c-.006.221.18.416.402.42zm2.672-4.608c.009.223.181.385.403.385.235 0 .411-.176.409-.407a.4.4 0 0 0-.419-.399c-.231.005-.401.188-.393.421zm2.75.004c.01.223.183.382.409.377.221-.006.391-.176.392-.397a.4.4 0 0 0-.413-.402.39.39 0 0 0-.388.422zM7.397 6.811c.216-.004.388-.181.391-.4a.39.39 0 0 0-.382-.402.39.39 0 0 0-.416.395.4.4 0 0 0 .407.407zm5.226-.803c-.231-.009-.417.167-.419.396a.41.41 0 0 0 .389.407.42.42 0 0 0 .421-.401c.001-.215-.173-.394-.39-.402zm-6.208.971c-.218-.004-.417.195-.414.413.003.212.186.395.399.4.225.004.41-.183.407-.41a.41.41 0 0 0-.392-.403zm.391 5.612c-.002-.219-.175-.391-.396-.394-.228-.001-.414.185-.409.41.004.217.179.387.4.39a.39.39 0 0 0 .405-.406zm3.193 2.24c.226 0 .408-.19.4-.417a.39.39 0 0 0-.404-.384.4.4 0 0 0-.404.387c-.007.219.187.415.408.414zm4.618-3.478a.4.4 0 0 0-.395-.396c-.226 0-.406.185-.402.414s.189.4.42.39c.221-.009.381-.183.377-.408zm-2.844 2.86c.001-.223-.192-.415-.413-.41-.216.007-.388.185-.389.405-.001.229.183.414.41.408.211-.006.391-.189.392-.403zm3.069-4.235a.4.4 0 0 0-.409-.384c-.22.003-.398.176-.402.391a.42.42 0 0 0 .41.413c.222-.001.409-.197.401-.42zm-9.075 1.784c.228.005.418-.178.417-.4a.42.42 0 0 0-.395-.402c-.214-.007-.4.166-.413.379-.012.231.16.418.391.423zM6.4 9.081c-.185-.006-.355.16-.355.345a.35.35 0 0 0 .338.33c.189.004.358-.157.353-.339-.002-.175-.159-.332-.336-.336zm-.011 1.146c-.181.003-.337.157-.338.333a.35.35 0 0 0 .356.338.35.35 0 0 0 .326-.345.35.35 0 0 0-.344-.326zm6.199-2.472c.182-.004.342-.179.331-.362-.012-.172-.176-.323-.348-.319s-.33.161-.332.335c-.003.182.167.351.349.346zm-4.235 5.832a.34.34 0 0 0 .33-.338c.013-.179-.163-.352-.344-.351s-.349.174-.345.352.181.354.359.337zm1.097.348c.173-.013.323-.178.316-.348-.006-.183-.184-.345-.362-.33s-.322.175-.317.35c.007.181.182.34.362.328zM9.085 6.39c0 .195.151.337.354.332.178-.005.334-.157.334-.33.003-.184-.167-.341-.359-.335-.186.006-.329.15-.329.333zM7.08 11.652a.35.35 0 0 0-.332-.337c-.175-.003-.335.156-.337.33s.155.337.33.337.335-.154.339-.33zm5.514 1.254c.186-.007.33-.154.329-.335-.002-.194-.156-.337-.358-.33a.35.35 0 0 0-.332.334c0 .182.169.337.361.331zm.326-4.577c-.001.207.103.323.31.337a.32.32 0 0 0 .357-.321.32.32 0 0 0-.316-.338.31.31 0 0 0-.351.322zm.348 3.66a.34.34 0 0 0 .314-.352.34.34 0 0 0-.336-.329c-.187.004-.338.173-.326.365.012.179.175.326.348.316zm-4.94-5.576c-.18.006-.332.161-.33.335s.16.326.34.325c.195 0 .352-.161.341-.348-.01-.182-.164-.318-.351-.312zm2.252-.348c-.189-.005-.337.13-.344.314s.139.333.322.339.335-.132.341-.316-.134-.331-.319-.337zm1.076.352c-.189 0-.327.138-.327.325s.138.328.326.328.327-.138.328-.326-.139-.327-.327-.327zm-.76 7.182c0-.186-.146-.335-.326-.337a.34.34 0 0 0-.333.331c-.002.176.154.335.329.336s.33-.149.33-.33zm-3.808-1.038c-.005.189.128.33.316.336s.332-.125.338-.314-.127-.331-.315-.337-.332.127-.339.315zm6.522-3.464a.32.32 0 0 0-.335.32.33.33 0 0 0 .323.336c.183.004.329-.137.333-.323a.32.32 0 0 0-.321-.333zM6.754 8.011c-.182-.006-.337.139-.343.316s.143.331.325.337.338-.137.345-.317-.145-.33-.327-.336zm5.227 5.238c.004-.183-.14-.337-.319-.342s-.331.149-.333.33.143.337.319.341.33-.146.333-.329zm1.294-2.683c.001.18.151.33.33.33s.325-.145.326-.332-.14-.327-.327-.327-.329.145-.329.329zM7.417 7.079c-.176-.002-.327.152-.327.333s.148.335.324.335.329-.15.329-.332-.149-.336-.326-.336z" stroke="none" fill="#000" fill-rule="nonzero"/></svg>