<svg xmlns="http://www.w3.org/2000/svg" width="20" height="20" stroke="#000" stroke-linecap="round" stroke-linejoin="round" fill="#fff" fill-rule="evenodd"><path d="M16.838 2.222V.804L17.867 0H6.727L0 5.848h4.461l-.011.324c0 1.086.376 1.984 1.129 2.701s1.679 1.075 2.777 1.075c.256 0 .508-.019.752-.053-.151.339-.228.652-.228.945 0 .514.235 1.064.702 1.648-2.044.139-3.545.507-4.502 1.102a4.16 4.16 0 0 0-1.323 1.278c-.333.515-.499 1.068-.499 1.665 0 .502.108.955.324 1.357s.499.733.85.989a5.13 5.13 0 0 0 1.209.649 6.66 6.66 0 0 0 1.358.368A8.68 8.68 0 0 0 8.337 20c.702 0 1.404-.09 2.112-.27s1.369-.45 1.988-.807 1.121-.838 1.507-1.444a3.75 3.75 0 0 0 .578-2.048c0-.574-.118-1.096-.352-1.57s-.518-.862-.857-1.164l-1.016-.832c-.339-.252-.625-.508-.858-.771s-.351-.524-.351-.781.09-.503.272-.743.399-.471.657-.693a10.69 10.69 0 0 0 .77-.736c.257-.268.476-.616.657-1.042s.271-.908.271-1.445c0-.701-.133-1.274-.393-1.736l-.098-.157 2.964-2.431v.892c-.385.048-.345.278-.345.554v6.701c0 .31.254.564.564.564h.208c.31 0 .564-.254.564-.564V2.776c0-.275.041-.505-.341-.554zm-5.592 11.587c.059.04.193.145.402.315s.354.297.43.386l.333.393c.146.176.245.329.297.455s.105.285.159.466a2 2 0 0 1 .077.55c0 .888-.341 1.546-1.023 1.972s-1.499.639-2.445.639a6.12 6.12 0 0 1-1.41-.166 5.64 5.64 0 0 1-1.322-.5 2.69 2.69 0 0 1-1.016-.927c-.257-.398-.385-.855-.385-1.367 0-.538.145-1.005.438-1.402s.674-.697 1.148-.902a6.4 6.4 0 0 1 1.435-.437 8.19 8.19 0 0 1 1.481-.133c.233 0 .414.013.542.036.024.012.158.108.403.29l.456.332zm-.175-5.238c-.386.461-.924.692-1.612.692-.618 0-1.161-.248-1.629-.745a4.42 4.42 0 0 1-1.007-1.689 5.99 5.99 0 0 1-.308-1.857c0-.713.188-1.32.562-1.822s.911-.754 1.611-.754c.619 0 1.166.262 1.638.789a4.72 4.72 0 0 1 1.016 1.769c.204.654.306 1.278.306 1.875 0 .7-.193 1.281-.577 1.742z" stroke="none" fill="#000" fill-rule="nonzero"/></svg>