<svg xmlns="http://www.w3.org/2000/svg" width="20" height="20" stroke="#000" stroke-linecap="round" stroke-linejoin="round" fill="#fff" fill-rule="evenodd"><path d="M1.109.031C.544.131.154.502.043 1.036L0 1.245v8.309l.043.232.04.231.26.425.19.13c.106.069.291.159.41.193l.225.066h17.664l.225-.066c.119-.034.304-.124.41-.193l.19-.13.26-.425.04-.231.043-.232V1.288l-.043-.232-.04-.228-.126-.208a1.2 1.2 0 0 0-.659-.532l-.221-.076-8.812-.008L1.286 0l-.177.031m.512 2.02v.601h1.543V1.446H1.621v.605m15.215.016v.62h1.543V1.446h-1.543v.621M5.957 3.328c-1.259.204-1.886.763-1.886 1.673v.236l.079.227c.233.674.596.879 2.398 1.321l.943.233.091.084.095.085.039.309-.095.128-.09.122-.237.104-.237.108h-.674l-.225-.091c-.276-.121-.545-.337-.667-.549l-.094-.162-.079-.015a12.81 12.81 0 0 0-1.436.177c-.028.027.079.282.225.532l.142.251.473.424.241.115a4.06 4.06 0 0 0 .591.206l.355.096.572.018.576.016.789-.146.32-.143.323-.143.237-.231.24-.228.119-.223c.067-.124.142-.332.169-.463l.048-.238-.044-.217c-.173-.828-.552-1.075-2.437-1.577-.998-.267-1.14-.32-1.247-.489l-.059-.096.079-.132c.169-.286 1.191-.39 1.625-.166l.166.086.106.192c.059.108.126.212.154.232l.047.035.667-.098.667-.1.015-.038c.008-.019-.039-.166-.106-.321l-.118-.277-.19-.208-.189-.213-.276-.13a4.04 4.04 0 0 0-.631-.227l-.355-.097-.517-.011a4.99 4.99 0 0 0-.702.019m7.357 0c-.454.061-.856.254-1.274.605l-.261.221V3.47h-1.424v5.321h1.542V7.7l.036-1.781.032-.694.086-.178c.166-.334.525-.563.959-.61l.189-.018.182.047.177.041.154.136.15.131.142.347.032 1.719.031 1.836.004.115h1.546l-.031-4.025-.063-.235c-.083-.308-.194-.498-.418-.714l-.182-.177-.221-.1a2.67 2.67 0 0 0-1.388-.212M1.621 6.131v2.66h1.543V3.47H1.621v2.661m15.215.02v2.64h1.543V3.505h-1.543v2.646" stroke="none" fill="#040404"/></svg>