<svg xmlns="http://www.w3.org/2000/svg" width="20" height="20" stroke="#000" stroke-linecap="round" stroke-linejoin="round" fill="#fff" fill-rule="evenodd"><path d="M19.984 8.808c-.096-.806-.54-1.399-1.371-1.591a2.43 2.43 0 0 0-.579-.042c-.755.014-1.214-.342-1.324-1.088-.049-.327-.041-.664-.018-.996.025-.345.073-.694.163-1.027.095-.36.181-.713.177-1.087l-.044-.554C16.809 1.256 15.924.332 14.745.071c-1.14-.254-2.3.221-2.981 1.171-.265.369-.592.704-.928 1.012-.46.412-1.078.422-1.565.063a4.2 4.2 0 0 1-.985-1.024C7.383-.031 5.636-.402 4.293.479c-1.07.702-1.456 1.837-1.251 3.098.058.355.168.699.227 1.054.084.491.126.989.041 1.488-.096.569-.401.908-.937 1.015-.141.029-.291.028-.436.035l-.378.015c-.444.063-.789.309-1.11.602-.208.189-.335.421-.39.689-.033.164-.057.33-.059.493-.005.539.083 1.053.468 1.467.484.52 1.075.77 1.785.638 1.062-.196 1.732-1.226 1.493-2.283-.06-.257-.176-.498-.254-.751-.171-.546-.096-1.04.312-1.462a2.01 2.01 0 0 1 .723-.465c.632-.253 1.291-.301 1.959-.215.432.056.841.185 1.208.432.667.447.79 1.178.433 1.834-.461.849-.258 1.89.51 2.484.496.383 1.062.483 1.67.425 1.439-.138 2.292-1.665 1.564-2.948-.305-.536-.242-1.18.244-1.63a2.07 2.07 0 0 1 .699-.416c.603-.226 1.227-.264 1.86-.181.47.063.918.202 1.31.484.465.337.698.786.603 1.362-.035.217-.111.429-.192.635a2.14 2.14 0 0 0-.138 1.162 1.87 1.87 0 0 0 1.786 1.567c.808.028 1.69-.522 1.883-1.406.066-.295.094-.592.058-.893zM10.009 7.12c-1.21 0-1.972-.989-1.968-1.971.002-1.081.885-1.948 1.978-1.945a1.96 1.96 0 0 1 1.958 1.955c-.005.978-.763 1.961-1.968 1.961z" stroke="none" fill="#000" fill-rule="nonzero"/></svg>