<svg xmlns="http://www.w3.org/2000/svg" width="20" height="20" stroke="#000" stroke-linecap="round" stroke-linejoin="round" fill="#fff" fill-rule="evenodd">
    <path d="M11.5661 17.422c-1.1381-1.1445-2.6611-2.9828-3.928-5.0608 2.0928-.4523 3.6425-2.2682 3.6425-4.0825 0-2.6742-2.2476-3.9154-5.1941-3.9154l-3.8726.0711c-1.0353 0-2.0696 0-2.7139-.0232v.693l.9807.1662c.6745.1199 1.0585.4045 1.0585 1.8862v9.4062c0 1.481-.3839 1.7671-1.0585 1.8854l-.9807.1694v.6906l3.1264-.0704 3.3071.0704v-.6906l-1.344-.1694c-.6969-.0936-1.0603-.4044-1.0603-1.8854v-3.9866c.6201.048 1.1623.048 1.9909.048 1.5757 2.6015 3.0743 4.5603 3.9254 5.4667.7766.8608 1.9641 1.4091 3.4627 1.4091.4386 0 .9031-.0712 1.1866-.1918v-.6195c-.9297 0-1.8593-.5978-2.5288-1.2667zm-6.1766-5.8728c-.8787 0-1.2644-.0216-1.8603-.0735V5.4854c.5959-.048 1.395-.048 2.0929-.048 2.1716 0 3.4619 1.0519 3.4619 2.9604 0 1.8862-1.3941 3.1514-3.6945 3.1514zm7.8864-6.0262l-.0701-.4404c-.0216-.1703-.0355-.37-.0441-.6058l-.0121-.848.0121-.8464.0441-.6066.0701-.4404a2.481 2.481 0 0 1 .1003-.3636c.2222-.621.5864-1.0878 1.0957-1.4011S15.604-.5 16.3442-.5c.3806 0 .7257.0408 1.0318.1238s.5742.1959.8138.3413.4402.3133.6088.5051.3122.398.4212.6187c.0423.0702.0303.1262-.0372.1654l-.9401.3572c-.0796.0392-.1357.0192-.1799-.0584-.2109-.3612-.3909-.5986-.6866-.7712S16.8.5285 16.3442.5285c-.4955 0-.717.0911-1.0274.2966s-.5336.4548-.6668.8407c-.0267.0696-.051.1559-.0795.2574-.0234.1031-.0424.2294-.0545.3772l-.0337.5467-.0104.7817.0104.7832.0337.5459c.0121.1494.0311.2749.0545.3788l.0795.2566c.1332.3844.3235.5946.6037.7633s.595.2941 1.0905.2941c.4402 0 .8433-.1159 1.1061-.2926s.4765-.4099.5734-.7288c.0425-.1343.0969-.3014.1341-.506s.0337-.4211.0337-.72c0-.0472-.0286-.0712-.0761-.0712h-1.5057c-.0847 0-.1263-.0383-.1263-.1167v-.7976c0-.0791.0416-.1175.1263-.1175h2.7631c.0865 0 .1272.0384.1272.1175v.6817l-.0407 1.0063c-.0389.3101-.0916.5786-.1582.7744-.211.6131-.5457 1.0494-1.0585 1.3747s-1.178.5043-1.8984.5043c-.7402 0-1.3638-.1574-1.8723-.47s-.8735-.7808-1.0957-1.4018c-.0424-.1175-.0753-.2382-.1004-.3644z" stroke="none" fill="#000" fill-rule="nonzero"/>
</svg>