<svg xmlns="http://www.w3.org/2000/svg" width="20" height="20" stroke="#000" stroke-linecap="round" stroke-linejoin="round" fill="#fff" fill-rule="evenodd"><path d="M0 20V0h6.972c1.782 0 3.056.18 3.82.539s1.391.983 1.882 1.869.737 1.949.737 3.186c0 1.564-.375 2.824-1.126 3.779s-1.817 1.555-3.199 1.801c.709.509 1.296 1.067 1.76 1.671s1.096 1.689 1.897 3.254L14.733 20h-3.95l-2.395-4.352-1.757-2.953c-.309-.395-.637-.668-.983-.818s-.9-.225-1.664-.225h-.683V20H0zM3.301 8.458h2.456c1.501 0 2.456-.065 2.865-.197s.741-.398.996-.798.381-.933.381-1.596c0-.637-.127-1.149-.381-1.535s-.6-.653-1.037-.799c-.309-.1-1.205-.15-2.688-.15H3.301v5.075z" stroke="none" fill="#000" fill-rule="nonzero"/></svg>