<svg xmlns="http://www.w3.org/2000/svg" width="20" height="20" stroke="none" stroke-linecap="round" stroke-linejoin="round" fill="#000" fill-rule="nonzero"><path d="M3.267.461a1.87 1.87 0 0 0-.715 1.217c0 .393-.609 1.825-1.253 3.149C-.275 7.869-.419 10.66.87 12.306c1.896 2.433 5.224 3.364 7.55 2.183 1.181-.608 3.364-2.97 4.116-4.473.322-.573 1.073-1.396 1.646-1.825.895-.645 1.109-1.002 1.002-1.933-.107-1.038-.179-1.109-1.539-1.109s-1.431.071-1.61 1.252c-.215 1.396-2.076 4.867-3.185 5.869-2.648 2.398-7.193.358-7.193-3.221 0-1.789 1.789-4.938 3.113-5.582 1.253-.573 1.575-2.326.609-3.042-.823-.572-1.289-.572-2.112.036zm9.09-.179c-1.682.536-2.791 1.503-4.044 3.507-.68 1.109-1.61 2.183-2.075 2.397-1.11.573-1.325 2.505-.323 3.042 1.253.68 2.541-.143 2.541-1.682 0-.465.573-1.682 1.253-2.755 1.825-2.863 3.936-3.722 6.298-2.505 1.253.679 2.469 2.505 2.469 3.757-.035 1.431-1.288 3.865-2.863 5.404-2.004 1.968-1.825 3.542.43 3.542 1.038 0 1.718-.823 1.718-2.075 0-.394.501-1.718 1.109-2.97 1.431-2.899 1.503-5.118.215-7.086C17.725.818 14.54-.398 12.357.282z"/></svg>