<svg xmlns="http://www.w3.org/2000/svg" width="20" height="20" stroke="#000" stroke-linecap="round" stroke-linejoin="round" fill="#fff" fill-rule="evenodd"><path d="M0 0v20h20V0zm6.084 5.205c1.158 0 1.669.134 2.382.43l-.067 1.063c-.767-.457-1.373-.592-2.248-.592a1.45 1.45 0 0 0-1.52 1.467c0 .942.901 1.292 1.749 1.804 1.09.646 2.221 1.224 2.221 2.503 0 1.682-1.44 2.53-2.813 2.53-.982 0-1.696-.148-2.395-.471l.161-1.063c.686.417 1.279.619 2.18.619.915 0 1.682-.619 1.682-1.481 0-.888-.861-1.224-1.682-1.722C4.631 9.619 3.42 9.027 3.42 7.654s1.009-2.449 2.664-2.449zm8.422 0c1.36 0 1.965.161 2.705.511l-.08 1.009c-.808-.444-1.656-.619-2.759-.619-1.75 0-3.244 1.386-3.244 3.634 0 2.126 1.521 3.728 3.432 3.728.875 0 1.75-.175 2.571-.619l.08 1.023c-.726.363-1.641.511-2.745.511-2.194 0-4.549-1.615-4.549-4.562 0-2.584 1.978-4.616 4.589-4.616z" stroke="none" fill="#000" opacity=".999" fill-rule="nonzero"/></svg>