<svg xmlns="http://www.w3.org/2000/svg" width="20" height="20" stroke="#000" stroke-linecap="round" stroke-linejoin="round" fill="#fff" fill-rule="evenodd"><path d="M14.463 2.5c.733 1.641 1.03 3.383 1.307 5.129l-.152.044-.11-.307-.624-2.258c-.072-.272-.243-.407-.487-.54-.359-.195-.698-.447-.996-.727-.19-.18-.352-.289-.621-.286l-5.379.037c-.119.002-.267.046-.352.124l-1.034 1.03c1.061 2.583 1.594 5.397 1.365 8.389-.509-.326-.903-.584-.927-1.267-.117-3.413-1.17-6.501-3.37-9.157-.049-.06-.074-.14-.11-.211h11.49zM1.142 3.816l1.532.007c.101.003.243.068.293.149 1.526 2.451 2.715 5.025 2.87 7.971 0 .011-.012.024-.055.109-.912-3.116-2.557-5.755-4.673-8.12l.033-.116zM-.5 5.961l1.963-.065c.063-.001.136.081.188.139C2.854 7.374 3.947 8.788 4.62 10.48c.128.322.216.66.322.99C3.548 9.276 1.607 7.635-.5 5.961zm7.842 11.12l-3.715-5.908.045-.058 3.262 2.633c.273.224.479.22.763-.011 3.33-2.705 7.046-4.752 10.991-6.403.211-.088.429-.158.645-.235a.27.27 0 0 1 .167-.009c-4.582 2.661-8.952 5.574-12.158 9.991z" stroke="none" fill="#000" fill-rule="nonzero"/></svg>