<svg xmlns="http://www.w3.org/2000/svg" width="20" height="20" stroke="#000" stroke-linecap="round" stroke-linejoin="round" fill="#fff" fill-rule="evenodd"><path d="M2.072 5.5c-1.42 0-2.398.83-2.398 1.996a1.8 1.8 0 0 0 .509 1.299c.376.389.777.603 1.715.925.978.308 1.166.402 1.366.549.349.281.55.67.55 1.085 0 .844-.804 1.527-1.795 1.527-.603 0-1.233-.241-1.621-.63-.295-.294-.496-.629-.67-1.138-.027-.067-.054-.107-.107-.107-.067 0-.121.067-.121.16 0 .107.054.416.148.71l.134.496c.08.402.093.415.201.509.281.214 1.111.415 1.727.415 1.541 0 2.639-.978 2.639-2.344 0-1.005-.656-1.728-2.009-2.17S.92 8.3.612 7.965C.398 7.724.29 7.442.29 7.121c0-.723.59-1.246 1.407-1.246.978 0 1.889.576 2.143 1.367.067.214.094.254.175.254.053 0 .107-.067.107-.161 0-.04-.014-.134-.027-.241l-.174-1.112c0-.187-.041-.268-.134-.268-.014 0-.04.014-.054.027-.134.107-.147.121-.214.121-.027 0-.067-.014-.107-.027-.71-.295-.831-.335-1.34-.335zm4.381.027c-1.019 0-1.809.415-2.171 1.085l.081.549a.94.94 0 0 1 .013.161c0 .214-.134.375-.308.415a1.72 1.72 0 0 0 .509 1.072c.375.388.777.603 1.715.924.964.322 1.165.402 1.366.549.348.268.549.67.549 1.085 0 .844-.803 1.527-1.795 1.527-.602 0-1.232-.241-1.621-.629a2.42 2.42 0 0 1-.321-.402c-.08.188-.174.375-.281.536.08.375.093.402.201.482.281.214 1.111.415 1.728.415 1.527 0 2.639-.978 2.639-2.344-.027-.978-.697-1.688-2.05-2.143-1.366-.456-1.433-.482-1.728-.817-.214-.242-.322-.523-.322-.844 0-.737.59-1.246 1.407-1.246.978 0 1.875.576 2.143 1.366.067.215.108.255.175.255.053 0 .107-.067.107-.161 0-.04-.014-.121-.027-.241l-.174-1.112c0-.188-.04-.268-.134-.268-.027 0-.04.014-.054.027-.134.107-.147.12-.214.12-.027 0-.054-.013-.107-.026-.697-.308-.831-.335-1.326-.335zm3.884.147l-.817.027-.884.04h-.107a.67.67 0 0 1 .04.255c.014.107.013.16.094.602l.094.59a.94.94 0 0 1 .013.161c0 .12-.04.227-.121.308v.093 2.01c.242.348.362.75.362 1.205 0 .523-.147.992-.402 1.38-.067.482-.241.603-.683.737-.107.027-.134.04-.134.107 0 .08.04.107.147.107a3.76 3.76 0 0 0 .282-.026c.187-.027.469-.041.737-.041l1.232.041.335.026c.094 0 .174-.04.174-.107s-.067-.107-.201-.12c-.777-.081-1.031-.362-1.004-1.126v-.294-1.688c.013-.188.039-.215.321-.201h.603c.241 0 .308.04.428.228.041.067.067.107.067.12l1.353 2.076c.55.844 1.032 1.166 1.701 1.166.402 0 .778-.107.778-.214 0-.041-.041-.081-.094-.081-.576.013-.965-.308-1.648-1.353l-1.527-2.224c.884-.455 1.366-1.098 1.366-1.915 0-.59-.241-1.112-.669-1.433s-.978-.456-1.836-.456zm9.002.094c-.067 0-.147.013-.268.027-.133.026-.268.04-.495.04a21.17 21.17 0 0 1-1.059-.04l-.241-.014c-.107 0-.16.04-.16.107 0 .081.04.121.16.148 1.045.147 1.139.388 1.112 2.947v2.625c0 .175-.013.215-.067.201-.027 0-.067-.04-.147-.134l-5.037-5.733c-.107-.121-.174-.161-.295-.161a1.04 1.04 0 0 0-.187.014h-.094c-.027 0-.268 0-.429-.014l.201.134c.483.362.777.978.777 1.648 0 .107-.013.214-.027.308v.241 3.242l.134.201.309.455v-.201-3.724c0-.187.026-.241.107-.241.053 0 .067.014.134.081l4.621 5.304c.174.201.174.201.255.201.134 0 .174-.08.174-.321v-.107l.013-1.514V7.925l.014-.349c-.014-1.326.04-1.46.549-1.594.08-.013.107-.04.107-.094 0-.067-.067-.12-.161-.12zm-9.296.281c.509 0 1.058.174 1.366.456.388.321.616.857.616 1.366 0 .911-.576 1.474-1.54 1.474h-.617c-.361-.014-.388-.041-.388-.389V6.732c0-.375 0-.415.067-.509.08-.107.241-.174.496-.174z" stroke="none" fill="#000" fill-rule="nonzero"/></svg>