<svg xmlns="http://www.w3.org/2000/svg" width="20" height="20" stroke="#000" stroke-linecap="round" stroke-linejoin="round" fill="#fff" fill-rule="evenodd">
    <path d="M1.545 6.537l.045 7.053.362.799c.678 1.491 2.245 2.592 5.169 3.616 1.673.588 2.471 1.01 2.592 1.326.09.241.12.226.331-.06.257-.377.709-.603 2.653-1.296 2.938-1.055 4.279-1.974 5.003-3.436l.391-.783V6.628-.5H9.803 1.5l.045 7.037zM5.885.012c0 .046-.12.181-.256.332-.256.256-.256.256.106.151C6.443.284 7.166.148 7.362.223c.09.031.181.211.181.392a.95.95 0 0 0 .196.543c.15.181.135.181-.076.015-.241-.181-.271-.151-.271.226 0 .753-.166 1.1-.603 1.296-.241.105-.391.241-.361.301.045.06-.015.136-.121.151l-1.115.105c-.362.015-.633.618-.286.618a.39.39 0 0 1 .316.181c.076.121 0 .136-.226.075-.181-.045-.407.015-.527.136-.151.136-.241.151-.272.045s-.241-.015-.482.226c-.452.407-.844.513-.844.226 0-.09-.105-.135-.226-.075-.165.06-.226-.03-.226-.301 0-.242.076-.362.196-.317.091.03.166.151.136.256-.015.106.226-.03.572-.301.694-.558.724-.603.272-.497-.332.09-.317.06.09-.377.241-.256.512-.437.603-.377.12.06.12.03.015-.075-.121-.121-.316-.136-.723-.015-.829.226-1.553-.241-.92-.588.166-.09.392-.06.679.075.542.272 1.416.211 1.416-.105 0-.151-.121-.211-.407-.181-.346.045-.422-.015-.422-.271s.061-.302.317-.226c.256.09.301.045.256-.181-.03-.151-.181-.271-.347-.271S3.836.826 3.806.706c-.03-.166.226-.287.904-.468C5.9-.063 5.885-.063 5.885.012zm3.406 1.311c-.226.332-.166.799.075.648.076-.045.136.121.136.377 0 .241-.06.497-.151.543-.09.06-.105-.015-.045-.166.075-.211.045-.226-.256-.06-.256.135-.286.211-.151.301s.03.151-.301.181c-.603.06-.724.301-.332.678 1.055 1.01.528 2.306-.693 1.688l-.497-.241c-.045-.015-.091.165-.106.407 0 .256.061.452.136.452s.136.12.136.256c0 .226.03.226.135.06s.166-.06.241.377c.151.904.241.979.151.135-.06-.633-.045-.708.105-.452.257.437.287.694.106 1.221-.121.377-.211.467-.437.407-.166-.045-.301 0-.301.09 0 .181-.468.045-.633-.181-.166-.271.045-.572.346-.482.196.06.287.015.287-.12 0-.317-.588-1.01-.844-1.01-.121 0-.287-.166-.392-.377-.136-.286-.121-.437.09-.738.136-.211.241-.497.241-.648-.015-.256-.015-.256-.165 0-.091.151-.332.331-.528.407s-.362.256-.362.376c0 .136.076.196.151.151.091-.045.151-.015.151.06 0 .091-.06.166-.151.166-.075 0-.105.091-.06.211s.015.256-.075.317c-.091.045-.166.226-.166.391s-.06.257-.151.211c-.075-.045-.151-.045-.151.031 0 .06-.271.135-.617.15-.362.03-.573-.015-.513-.105.045-.091 0-.151-.12-.151-.377 0-.422-.437-.061-.618.287-.166.302-.15.136.045-.151.196-.136.226.196.151.482-.09.573-.241.678-1.085.075-.678.075-.678.648-.648.512.03.769-.166.377-.286-.226-.076-.287-.588-.091-.829a.65.65 0 0 1 .422-.196c.347 0 1.266 1.145 1.161 1.432-.061.135-.015.181.12.135.121-.045.392.046.603.211.512.407.829.272.829-.331a1.1 1.1 0 0 0-.377-.844c-.211-.196-.377-.467-.377-.603 0-.151.166-.437.377-.663s.377-.482.377-.588.06-.09.15.046c.106.165.151.105.151-.287 0-.301.106-.587.271-.708.362-.286.377-.256.121.105zm3.556.498c.046.241.015.346-.105.301-.091-.045-.271.03-.377.166-.181.211-.151.241.241.151l.859-.226c.317-.106.407-.091.407.09 0 .105.075.211.151.211.09 0 .15-.121.15-.271 0-.392.166-.513.407-.317.241.211.272.648.03.498-.09-.061-.135.015-.12.18.03.166-.03.437-.136.618-.135.241-.15.437-.045.618.121.226.226 1.236.181 1.793-.015.091-.106.272-.226.377-.286.286-.452.874-.256.874.09 0 .165.106.165.241 0 .121.061.196.136.151.06-.045.196.105.301.331.166.377.151.392-.06.121-.12-.166-.226-.226-.226-.136 0 .076.136.272.302.422s.256.332.21.407c-.06.106.091.106.407.045.663-.135 1.04-.346 1.04-.557 0-.091-.105-.076-.256.045-.241.196-.256.181-.075-.045.316-.407.165-1.085-.241-1.145-.287-.046-.347 0-.302.226.03.15.151.256.241.241.211-.046.241.196.045.316-.195.136-.587-.045-.678-.301-.165-.422.181-.814.663-.784.392.03.452.106.603.784.181.874 0 1.281-.738 1.597-.678.271-1.447.075-2.14-.557-.859-.784-1.356-1.809-.769-1.598.136.045.211.045.151-.03-.06-.06-.03-.226.075-.362.151-.211.151-.211-.06-.06-.392.317-.964-.422-.964-1.236 0-.587-.03-.633-.272-.497-.452.241-.678.03-.783-.678-.106-.678.211-1.612.527-1.612.226 0 .181.467-.075.753-.181.196-.196.347-.06.723l.165.483.362-.709c.211-.376.347-.783.301-.889s.091-.331.287-.497c.211-.151.376-.362.376-.452 0-.302.121-.181.181.196zm-.859 8.755c.498.121 1.1.211 1.342.226.602 0 1.145.543 1.145 1.115 0 .362-.045.407-.151.241-.075-.12-.151-.361-.151-.542s-.105-.317-.226-.317c-.196 0-.226.347-.226 2.216 0 2.034.03 2.23.302 2.486.346.316.181.527-.392.527-.256 0-.301-.075-.256-.346.075-.392.196-.362-2.517-.452-2.486-.076-4.897.181-4.882.512.015.181-.076.226-.287.166-.256-.06-.286-.166-.211-.904.046-.452.166-.904.272-.995.12-.12.15-.09.09.136-.045.166-.121.542-.181.829-.09.527-.09.527.121.135.181-.316.196-.829.12-2.531l-.09-2.125h.392c.226 0 .693-.106 1.055-.226.422-.151 1.085-.226 1.823-.211.648.03 1.221 0 1.266-.06.166-.166.648-.121 1.642.12z" stroke="none" fill="#000" fill-rule="nonzero"/>
    <path d="M10-.5v8.75l-8.5 4m8.5-4l8.5 3.5" fill="none" stroke="#fff"/>
</svg>