<svg xmlns="http://www.w3.org/2000/svg" width="20" height="20" stroke="#000" stroke-linecap="round" stroke-linejoin="round" fill="#fff" fill-rule="evenodd">
    <path d="M6.537.116c0 .065.127.161.282.209.493.153.497.201.366 3.85l-.167 4.34c-.051 1.039-.051 1.039.143 1.011.136-.02 1.201-1.26 3.34-3.886L14.994.385c.159-.08.29-.2.29-.265 0-.096-.274-.12-1.248-.12-1.364 0-1.598.092-.978.389.326.153.342.181.298.478a2.15 2.15 0 0 1-.274.663c-.219.345-3.972 4.985-4.004 4.949-.052-.052.175-4.861.246-5.279.1-.558.378-.927.708-.927.115 0 .235-.06.262-.136C10.334.016 10.096 0 8.438 0 6.943 0 6.537.024 6.537.116m9.093.009c0 .076.139.148.35.184.501.084.724.349.652.775-.095.55-1.872 7.013-2.004 7.278a1.28 1.28 0 0 1-.918.687c-.855.144-.251.216 1.829.216s2.755-.076 1.932-.216c-.453-.077-.712-.293-.712-.59 0-.322 1.837-7.138 2.028-7.528.171-.349.605-.658.931-.658.123 0 .25-.06.278-.136C20.04.016 19.765 0 17.837 0c-1.809 0-2.207.02-2.207.125M4.688 14.573l-4.417 5.11c-.119.032-.239.116-.267.189-.039.108.175.128 1.293.128 1.133 0 1.34-.02 1.34-.136 0-.077-.072-.137-.163-.137s-.251-.076-.362-.173c-.294-.252-.163-.59.656-1.665l.692-.912 1.328-.004h1.328l-.056.851c-.099 1.457-.255 1.787-.883 1.895-.175.028-.334.104-.35.169-.031.088.394.112 1.917.112 1.614 0 1.96-.02 1.96-.124 0-.073-.099-.157-.219-.185-.115-.032-.282-.165-.361-.297-.152-.245-.14-.968.119-7.583.051-1.309.047-1.353-.119-1.353-.124 0-1.146 1.224-3.436 4.115m7.221-3.758c0 .044.127.108.282.141a1.42 1.42 0 0 1 .489.204c.179.137.195.201.151.618-.052.502-1.694 6.572-1.932 7.142-.199.474-.465.707-.899.787-.207.036-.389.12-.409.181-.028.088.469.112 2.222.112 1.952 0 2.259-.016 2.259-.136 0-.097-.092-.137-.326-.137-.179 0-.414-.064-.521-.144-.334-.245-.283-.562.6-3.746l.175-.63.608.064c.334.036.708.113.824.169.298.14.461.526.461 1.076 0 .401.023.465.151.441.115-.024.262-.441.64-1.818.413-1.526.465-1.795.35-1.823-.08-.02-.199.064-.275.181-.497.803-1.013 1.124-1.972 1.22-.572.06-.628.052-.62-.1 0-.093.211-.887.457-1.771l.458-1.605.99.004c1.534.012 2.079.365 2.214 1.441.04.337.088.433.211.433.111 0 .187-.104.247-.345l.441-1.939c0-.072-1.086-.1-3.638-.1l-3.638.08m-6.831 4.159l-1.129 1.405 1.045.024h1.07c.036-.036.199-2.77.167-2.806-.012-.016-.533.602-1.153 1.377" stroke="none" fill="#040404"/>
</svg>